<svg id="Capa_1" data-name="Capa 1" xmlns="http://www.w3.org/2000/svg" viewBox="0 0 379.73 323.62"><defs><style>.cls-1{fill:#fff;}.cls-1,.cls-2{opacity:0.13;}.cls-3{fill:none;stroke:#335c67;stroke-miterlimit:1.17;stroke-width:0.29px;}.cls-4{fill:#1e9c39;}</style></defs><rect class="cls-1" x="76.39" y="58.84" width="234" height="234"/><g class="cls-2"><path class="cls-3" d="M301.32,125.82l78.39,9.33M347.53,316.24,290.2,274.41l-61.71-22.52L166.77,216.2,88.09,234l74.58,48.27-49.28,33.78-25.3-82L18.76,203l87.46-32.47-38.9-44.75,46.07-43.73L56.2,40.41"/><path class="cls-3" d="M67.32,125.82l78.39,9.36,44.75,35.39L252.76,203l-86.14,13-60.55-45.63m78.54,153.13-21.94-41.24"/><path class="cls-3" d="M228.49,251.89l17,53.23,44.75-30.71L322.09,234l-69.33-31-24.27,48.85-65.82,30.42,4.1-66.11,23.69-45.63,43.58-33,67.28-11.7L245.3,71,184.61,89.55,162.67,48.31,113.39,82.09l32.32,53.09-39.49,35.39L88.09,234,56.2,274.41l57.33,41.83"/><path class="cls-3" d="M228.49,17.89,245.6,71.27l44.6-30.86M252.76,203,234,137.52l-88.33-2.34,38.9-45.63m155.61,81L234,137.52m-43.58,33H106.22"/><path class="cls-3" d="M11.45,71.12l101.94,11,71.22,7.46,49.43,48L245.3,71,347.53,82.24l-46.21,43.58,38.9,44.75L252.76,203l37.44,71.37M162.67,48.31,245.3,71m.15,234.15-82.78-22.81M88.09,0l25.44,82.2m-7.31,88.33L0,137.52"/></g><g class="cls-2"><circle class="cls-4" cx="301.32" cy="125.82" r="1.75"/><circle class="cls-4" cx="234.04" cy="137.52" r="1.75"/><circle class="cls-4" cx="252.76" cy="203.04" r="1.75"/><circle class="cls-4" cx="290.2" cy="274.41" r="1.75"/><circle class="cls-4" cx="228.49" cy="251.89" r="1.75"/><circle class="cls-4" cx="166.77" cy="216.2" r="1.75"/><circle class="cls-4" cx="162.67" cy="282.31" r="1.75"/><circle class="cls-4" cx="88.09" cy="234.04" r="1.75"/><circle class="cls-4" cx="106.22" cy="170.57" r="1.75"/><circle class="cls-4" cx="113.53" cy="82.24" r="1.75"/><circle class="cls-4" cx="184.61" cy="89.55" r="1.75"/><circle class="cls-4" cx="245.45" cy="71.12" r="1.75"/><circle class="cls-4" cx="145.71" cy="135.18" r="1.75"/><circle class="cls-4" cx="190.46" cy="170.57" r="1.75"/></g></svg>