<?xml version="1.0" encoding="utf-8"?>
<!-- Generator: Adobe Illustrator 26.3.1, SVG Export Plug-In . SVG Version: 6.00 Build 0)  -->
<svg version="1.1" id="Capa_1" xmlns="http://www.w3.org/2000/svg" xmlns:xlink="http://www.w3.org/1999/xlink" x="0px" y="0px"
	 viewBox="0 0 1080 1920" style="enable-background:new 0 0 1080 1920;" xml:space="preserve">
<style type="text/css">
	.st0{opacity:0.15;fill:none;stroke:#724F4C;stroke-width:3;stroke-miterlimit:10;}
	.st1{opacity:0.15;}
	.st2{fill:#1E9C39;}
	.st3{fill:#335C67;}
	.st4{opacity:0.15;fill:none;stroke:#BEB0A7;stroke-width:2;stroke-miterlimit:10;}
	.st5{opacity:0.15;fill:none;stroke:#1E9C39;stroke-width:2;stroke-miterlimit:10;}
	.st6{opacity:0.15;fill:none;stroke:#3F84E5;stroke-width:3;stroke-miterlimit:10;}
	.st7{opacity:0.15;fill:none;stroke:#1E9C39;stroke-width:3;stroke-miterlimit:10;}
	.st8{opacity:0.4;fill:none;stroke:#335C67;stroke-width:2;stroke-miterlimit:10;}
	.st9{opacity:0.4;fill:none;stroke:#3F84E5;stroke-width:2;stroke-miterlimit:10;}
	.st10{opacity:0.4;fill:none;stroke:#1E9C39;stroke-width:2;stroke-miterlimit:10;}
	.st11{opacity:0.4;fill:none;stroke:#724F4C;stroke-width:3;stroke-miterlimit:10;}
</style>
<path class="st0" d="M992,273c0-22.1-17.9-40-40-40s-40,17.9-40,40s17.9,40,40,40"/>
<g class="st1">
	<path class="st2" d="M834.7-152.4l21,17.6c57.1,47.9,64.6,133.1,16.6,190.2l-227.4,271C597,383.6,511.8,391,454.7,343.1l-21-17.6
		c-57.1-47.9-64.6-133.1-16.6-190.2l227.4-271C692.4-192.8,777.5-200.3,834.7-152.4z"/>
</g>
<g class="st1">
	<path class="st3" d="M1024.4-14.3L792.9,261.5c-8.9,10.6-24.6,12-35.2,3.1v0c-10.6-8.9-12-24.6-3.1-35.2L986.1-46.5
		c8.9-10.6,24.6-12,35.2-3.1v0C1031.8-40.7,1033.2-24.9,1024.4-14.3z"/>
</g>
<g class="st1">
	<path class="st3" d="M603.8-122L363.5,164.3c-6.4,7.7-17.9,8.7-25.5,2.2v0c-7.7-6.4-8.7-17.9-2.2-25.5L576-145.3
		c6.4-7.7,17.9-8.7,25.5-2.2l0,0C609.2-141.1,610.2-129.7,603.8-122z"/>
</g>
<circle class="st4" cx="228" cy="123" r="22"/>
<circle class="st5" cx="663" cy="512" r="44"/>
<circle class="st6" cx="294.5" cy="357.5" r="44"/>
<path class="st0" d="M104.2,887.8c0-22.1,17.9-40,40-40s40,17.9,40,40s-17.9,40-40,40"/>
<circle class="st4" cx="833" cy="698" r="22"/>
<circle class="st5" cx="126.2" cy="1170.8" r="44"/>
<circle class="st6" cx="743.2" cy="934.8" r="44"/>
<path class="st7" d="M526.5,738.2c0-22.1-17.9-40-40-40s-40,17.9-40,40s17.9,40,40,40"/>
<path class="st0" d="M991.2,1742.6c0,22.1-17.9,40-40,40s-40-17.9-40-40s17.9-40,40-40"/>
<circle class="st4" cx="227.2" cy="1892.6" r="22"/>
<g>
	<path class="st8" d="M99,288c0,12.2,9.8,22,22,22s22-9.8,22-22s-9.8-22-22-22"/>
	<path class="st9" d="M415.1,530.5c-10.4,6.3-13.8,19.8-7.5,30.2c6.3,10.4,19.8,13.8,30.2,7.5"/>
	<path class="st10" d="M960,600c12.2,0,22-9.8,22-22s-9.8-22-22-22c-9.2,0-17.1,5.7-20.4,13.7"/>
	<circle class="st8" cx="779" cy="357" r="22"/>
	<circle class="st11" cx="121" cy="573" r="22"/>
	<path class="st8" d="M983.2,825.7c0,12.2-9.8,22-22,22s-22-9.8-22-22s9.8-22,22-22"/>
	<path class="st9" d="M681.2,1095.2c10.4,6.3,13.8,19.8,7.5,30.2s-19.8,13.8-30.2,7.5"/>
	<path class="st10" d="M557.2,1030.8c-12.2,0-22-9.8-22-22s9.8-22,22-22c9.2,0,17.1,5.7,20.4,13.7"/>
	<circle class="st8" cx="295.2" cy="1052.8" r="22"/>
	<circle class="st11" cx="975.2" cy="1137.8" r="22"/>
	<path class="st8" d="M98.2,1727.7c0-12.2,9.8-22,22-22s22,9.8,22,22s-9.8,22-22,22"/>
	<path class="st9" d="M414.3,1485.1c-10.4-6.3-13.8-19.8-7.5-30.2s19.8-13.8,30.2-7.5"/>
	<path class="st10" d="M538.2,1549.6c12.2,0,22,9.8,22,22s-9.8,22-22,22c-9.2,0-17.1-5.7-20.4-13.7"/>
	<circle class="st8" cx="800.2" cy="1527.6" r="22"/>
	<circle class="st11" cx="120.2" cy="1442.6" r="22"/>
</g>
<circle class="st5" cx="969.2" cy="1409.6" r="44"/>
<circle class="st6" cx="352.2" cy="1695.6" r="44"/>
<circle class="st4" cx="867.5" cy="1277.9" r="22"/>
<path class="st7" d="M525.8,1277.4c0,22.1-17.9,40-40,40s-40-17.9-40-40s17.9-40,40-40"/>
</svg>
