<?xml version="1.0" encoding="UTF-8"?>
<svg xmlns="http://www.w3.org/2000/svg" xmlns:xlink="http://www.w3.org/1999/xlink" width="100px" height="100px" viewBox="0 0 100 100" version="1.1">
<g id="surface1">
<path style=" stroke:none;fill-rule:nonzero;fill:rgb(44.705882%,30.980392%,29.803922%);fill-opacity:1;" d="M 9.605469 86.246094 L 9.605469 78.117188 L 12.910156 78.117188 C 14.054688 78.117188 14.929688 78.339844 15.523438 78.785156 C 16.121094 79.230469 16.417969 79.886719 16.417969 80.753906 C 16.417969 81.664062 16.117188 82.359375 15.511719 82.832031 C 14.90625 83.304688 14.015625 83.539062 12.839844 83.539062 L 11.804688 83.539062 L 11.804688 86.246094 Z M 11.804688 82.066406 L 12.992188 82.066406 C 13.410156 82.066406 13.730469 81.957031 13.945312 81.738281 C 14.164062 81.523438 14.273438 81.207031 14.273438 80.796875 C 14.273438 80.402344 14.160156 80.105469 13.925781 79.90625 C 13.695312 79.703125 13.351562 79.601562 12.894531 79.601562 L 11.804688 79.601562 Z M 17.363281 86.246094 L 17.363281 78.117188 L 20.871094 78.117188 C 23.066406 78.117188 24.164062 78.882812 24.164062 80.414062 C 24.164062 80.941406 24.039062 81.394531 23.789062 81.773438 C 23.539062 82.152344 23.175781 82.4375 22.703125 82.621094 L 22.703125 82.644531 C 22.867188 82.746094 22.992188 82.84375 23.085938 82.933594 C 23.175781 83.027344 23.25 83.128906 23.304688 83.238281 L 24.695312 86.246094 L 22.375 86.246094 L 21.308594 83.816406 C 21.210938 83.601562 21.078125 83.457031 20.921875 83.386719 C 20.761719 83.316406 20.476562 83.285156 20.066406 83.285156 L 19.5625 83.285156 L 19.5625 86.246094 Z M 19.5625 81.808594 L 20.625 81.808594 C 21.074219 81.808594 21.417969 81.710938 21.65625 81.511719 C 21.898438 81.316406 22.019531 81.03125 22.019531 80.660156 C 22.019531 79.953125 21.546875 79.601562 20.597656 79.601562 L 19.5625 79.601562 Z M 29.09375 86.359375 C 28.183594 86.359375 27.402344 86.195312 26.746094 85.863281 C 26.089844 85.527344 25.589844 85.046875 25.246094 84.421875 C 24.898438 83.792969 24.726562 83.046875 24.726562 82.179688 C 24.726562 81.3125 24.898438 80.566406 25.246094 79.941406 C 25.589844 79.3125 26.089844 78.832031 26.746094 78.5 C 27.402344 78.167969 28.183594 78 29.09375 78 C 30.003906 78 30.789062 78.167969 31.441406 78.5 C 32.097656 78.832031 32.597656 79.3125 32.945312 79.941406 C 33.289062 80.566406 33.464844 81.3125 33.464844 82.179688 C 33.464844 83.046875 33.289062 83.792969 32.945312 84.421875 C 32.597656 85.046875 32.097656 85.527344 31.441406 85.863281 C 30.789062 86.195312 30.003906 86.359375 29.09375 86.359375 Z M 29.09375 84.886719 C 29.769531 84.886719 30.296875 84.644531 30.683594 84.164062 C 31.070312 83.6875 31.265625 83.023438 31.265625 82.179688 C 31.265625 81.335938 31.070312 80.675781 30.683594 80.195312 C 30.296875 79.714844 29.769531 79.476562 29.09375 79.476562 C 28.421875 79.476562 27.890625 79.714844 27.503906 80.195312 C 27.117188 80.675781 26.925781 81.335938 26.925781 82.179688 C 26.925781 83.023438 27.117188 83.6875 27.503906 84.164062 C 27.890625 84.644531 28.421875 84.886719 29.09375 84.886719 Z M 33.765625 83.714844 L 33.765625 82.597656 L 37.863281 82.597656 L 37.863281 83.714844 Z M 42.535156 86.359375 C 41.625 86.359375 40.84375 86.195312 40.1875 85.863281 C 39.53125 85.527344 39.03125 85.046875 38.683594 84.421875 C 38.339844 83.792969 38.167969 83.046875 38.167969 82.179688 C 38.167969 81.3125 38.339844 80.566406 38.683594 79.941406 C 39.03125 79.3125 39.53125 78.832031 40.1875 78.5 C 40.84375 78.167969 41.625 78 42.535156 78 C 43.445312 78 44.230469 78.167969 44.882812 78.5 C 45.539062 78.832031 46.039062 79.3125 46.386719 79.941406 C 46.730469 80.566406 46.90625 81.3125 46.90625 82.179688 C 46.90625 83.046875 46.730469 83.792969 46.386719 84.421875 C 46.039062 85.046875 45.539062 85.527344 44.882812 85.863281 C 44.230469 86.195312 43.445312 86.359375 42.535156 86.359375 Z M 42.535156 84.886719 C 43.210938 84.886719 43.738281 84.644531 44.125 84.164062 C 44.511719 83.6875 44.707031 83.023438 44.707031 82.179688 C 44.707031 81.335938 44.511719 80.675781 44.125 80.195312 C 43.738281 79.714844 43.210938 79.476562 42.535156 79.476562 C 41.863281 79.476562 41.332031 79.714844 40.945312 80.195312 C 40.558594 80.675781 40.363281 81.335938 40.363281 82.179688 C 40.363281 83.023438 40.558594 83.6875 40.945312 84.164062 C 41.332031 84.644531 41.863281 84.886719 42.535156 84.886719 Z M 47.808594 86.246094 L 47.808594 78.117188 L 51.316406 78.117188 C 53.511719 78.117188 54.609375 78.882812 54.609375 80.414062 C 54.609375 80.941406 54.484375 81.394531 54.234375 81.773438 C 53.984375 82.152344 53.621094 82.4375 53.148438 82.621094 L 53.148438 82.644531 C 53.3125 82.746094 53.4375 82.84375 53.53125 82.933594 C 53.621094 83.027344 53.695312 83.128906 53.746094 83.238281 L 55.140625 86.246094 L 52.820312 86.246094 L 51.753906 83.816406 C 51.65625 83.601562 51.523438 83.457031 51.367188 83.386719 C 51.207031 83.316406 50.921875 83.285156 50.511719 83.285156 L 50.007812 83.285156 L 50.007812 86.246094 Z M 50.007812 81.808594 L 51.070312 81.808594 C 51.519531 81.808594 51.863281 81.710938 52.101562 81.511719 C 52.34375 81.316406 52.464844 81.03125 52.464844 80.660156 C 52.464844 79.953125 51.992188 79.601562 51.046875 79.601562 L 50.007812 79.601562 Z M 55.9375 86.246094 L 55.9375 78.117188 L 58.132812 78.117188 L 58.132812 86.246094 Z M 59.800781 86.246094 L 59.800781 78.117188 L 66.34375 78.117188 L 66.34375 79.601562 L 62 79.601562 L 62 81.238281 L 65.878906 81.238281 L 65.878906 82.726562 L 62 82.726562 L 62 84.757812 L 66.34375 84.757812 L 66.34375 86.246094 Z M 72.980469 78.117188 L 75.164062 78.117188 L 75.164062 86.246094 L 73.171875 86.246094 L 69.484375 81.261719 L 69.484375 86.246094 L 67.300781 86.246094 L 67.300781 78.117188 L 69.390625 78.117188 L 72.980469 83.003906 Z M 78.664062 86.246094 L 78.664062 79.476562 L 75.851562 79.476562 L 75.851562 78.117188 L 83.675781 78.117188 L 83.675781 79.476562 L 80.863281 79.476562 L 80.863281 86.246094 Z M 84.359375 86.246094 L 84.359375 78.117188 L 90.902344 78.117188 L 90.902344 79.601562 L 86.558594 79.601562 L 86.558594 81.238281 L 90.4375 81.238281 L 90.4375 82.726562 L 86.558594 82.726562 L 86.558594 84.757812 L 90.902344 84.757812 L 90.902344 86.246094 Z M 84.359375 86.246094 "/>
<path style=" stroke:none;fill-rule:nonzero;fill:rgb(44.705882%,30.980392%,29.803922%);fill-opacity:1;" d="M 44.992188 89.980469 L 44.992188 90.609375 C 44.886719 90.527344 44.734375 90.488281 44.535156 90.488281 C 44.273438 90.488281 44.058594 90.609375 43.882812 90.855469 C 43.710938 91.097656 43.621094 91.433594 43.621094 91.855469 L 43.621094 93.789062 L 43.015625 93.789062 L 43.015625 89.996094 L 43.621094 89.996094 L 43.621094 90.777344 L 43.636719 90.777344 C 43.722656 90.511719 43.855469 90.300781 44.035156 90.152344 C 44.210938 90.003906 44.410156 89.929688 44.628906 89.929688 C 44.789062 89.929688 44.910156 89.945312 44.992188 89.980469 Z M 49.078125 91.722656 L 49.078125 92.042969 L 46.402344 92.042969 C 46.410156 92.464844 46.523438 92.792969 46.742188 93.019531 C 46.960938 93.25 47.257812 93.367188 47.636719 93.367188 C 48.066406 93.367188 48.457031 93.226562 48.816406 92.941406 L 48.816406 93.511719 C 48.484375 93.753906 48.042969 93.875 47.492188 93.875 C 46.957031 93.875 46.539062 93.703125 46.230469 93.359375 C 45.925781 93.015625 45.773438 92.53125 45.773438 91.90625 C 45.773438 91.316406 45.9375 90.835938 46.273438 90.464844 C 46.609375 90.09375 47.023438 89.90625 47.519531 89.90625 C 48.015625 89.90625 48.398438 90.066406 48.671875 90.386719 C 48.941406 90.707031 49.078125 91.152344 49.078125 91.722656 Z M 46.410156 91.527344 L 48.457031 91.527344 C 48.453125 91.179688 48.371094 90.90625 48.203125 90.710938 C 48.035156 90.515625 47.804688 90.417969 47.507812 90.417969 C 47.222656 90.417969 46.980469 90.519531 46.777344 90.722656 C 46.578125 90.929688 46.457031 91.199219 46.410156 91.527344 Z M 52.25 88.15625 L 52.25 88.707031 C 52.132812 88.640625 52 88.605469 51.847656 88.605469 C 51.421875 88.605469 51.210938 88.875 51.210938 89.410156 L 51.210938 89.996094 L 52.097656 89.996094 L 52.097656 90.511719 L 51.210938 90.511719 L 51.210938 93.789062 L 50.605469 93.789062 L 50.605469 90.511719 L 49.957031 90.511719 L 49.957031 89.996094 L 50.605469 89.996094 L 50.605469 89.378906 C 50.605469 88.984375 50.722656 88.667969 50.949219 88.4375 C 51.179688 88.207031 51.46875 88.089844 51.808594 88.089844 C 51.996094 88.089844 52.140625 88.113281 52.25 88.15625 Z M 54.714844 93.875 C 54.15625 93.875 53.707031 93.699219 53.371094 93.34375 C 53.039062 92.992188 52.871094 92.519531 52.871094 91.933594 C 52.871094 91.296875 53.046875 90.800781 53.394531 90.441406 C 53.742188 90.085938 54.210938 89.90625 54.804688 89.90625 C 55.371094 89.90625 55.8125 90.082031 56.128906 90.429688 C 56.445312 90.777344 56.605469 91.257812 56.605469 91.875 C 56.605469 92.480469 56.433594 92.964844 56.089844 93.328125 C 55.75 93.695312 55.289062 93.875 54.714844 93.875 Z M 54.761719 90.417969 C 54.371094 90.417969 54.0625 90.550781 53.835938 90.816406 C 53.605469 91.082031 53.492188 91.445312 53.492188 91.914062 C 53.492188 92.363281 53.609375 92.71875 53.835938 92.976562 C 54.066406 93.234375 54.375 93.367188 54.761719 93.367188 C 55.152344 93.367188 55.453125 93.238281 55.664062 92.984375 C 55.875 92.730469 55.980469 92.367188 55.980469 91.898438 C 55.980469 91.425781 55.875 91.058594 55.664062 90.800781 C 55.453125 90.546875 55.152344 90.417969 54.761719 90.417969 Z M 59.933594 89.980469 L 59.933594 90.609375 C 59.824219 90.527344 59.671875 90.488281 59.472656 90.488281 C 59.214844 90.488281 58.996094 90.609375 58.824219 90.855469 C 58.648438 91.097656 58.5625 91.433594 58.5625 91.855469 L 58.5625 93.789062 L 57.953125 93.789062 L 57.953125 89.996094 L 58.5625 89.996094 L 58.5625 90.777344 L 58.578125 90.777344 C 58.664062 90.511719 58.792969 90.300781 58.972656 90.152344 C 59.148438 90.003906 59.347656 89.929688 59.570312 89.929688 C 59.726562 89.929688 59.847656 89.945312 59.933594 89.980469 Z M 64.019531 91.722656 L 64.019531 92.042969 L 61.339844 92.042969 C 61.351562 92.464844 61.464844 92.792969 61.679688 93.019531 C 61.898438 93.25 62.199219 93.367188 62.578125 93.367188 C 63.003906 93.367188 63.398438 93.226562 63.753906 92.941406 L 63.753906 93.511719 C 63.421875 93.753906 62.980469 93.875 62.433594 93.875 C 61.898438 93.875 61.476562 93.703125 61.171875 93.359375 C 60.863281 93.015625 60.710938 92.53125 60.710938 91.90625 C 60.710938 91.316406 60.878906 90.835938 61.214844 90.464844 C 61.546875 90.09375 61.964844 89.90625 62.460938 89.90625 C 62.957031 89.90625 63.339844 90.066406 63.609375 90.386719 C 63.882812 90.707031 64.019531 91.152344 64.019531 91.722656 Z M 61.347656 91.527344 L 63.398438 91.527344 C 63.394531 91.179688 63.308594 90.90625 63.140625 90.710938 C 62.976562 90.515625 62.746094 90.417969 62.449219 90.417969 C 62.160156 90.417969 61.917969 90.519531 61.71875 90.722656 C 61.519531 90.929688 61.394531 91.199219 61.347656 91.527344 Z M 65.085938 93.652344 L 65.085938 93 C 65.417969 93.242188 65.78125 93.367188 66.179688 93.367188 C 66.710938 93.367188 66.980469 93.1875 66.980469 92.832031 C 66.980469 92.730469 66.957031 92.644531 66.910156 92.574219 C 66.863281 92.503906 66.804688 92.441406 66.726562 92.386719 C 66.648438 92.332031 66.554688 92.285156 66.453125 92.242188 C 66.347656 92.199219 66.234375 92.152344 66.113281 92.105469 C 65.945312 92.039062 65.796875 91.972656 65.671875 91.902344 C 65.542969 91.835938 65.4375 91.761719 65.351562 91.675781 C 65.265625 91.589844 65.203125 91.492188 65.160156 91.382812 C 65.117188 91.273438 65.09375 91.148438 65.09375 91.003906 C 65.09375 90.824219 65.136719 90.667969 65.214844 90.53125 C 65.296875 90.394531 65.40625 90.277344 65.542969 90.183594 C 65.679688 90.09375 65.832031 90.023438 66.007812 89.976562 C 66.179688 89.929688 66.359375 89.90625 66.546875 89.90625 C 66.875 89.90625 67.167969 89.960938 67.425781 90.078125 L 67.425781 90.691406 C 67.148438 90.507812 66.828125 90.417969 66.464844 90.417969 C 66.351562 90.417969 66.25 90.429688 66.15625 90.457031 C 66.066406 90.480469 65.988281 90.519531 65.921875 90.566406 C 65.855469 90.613281 65.804688 90.667969 65.769531 90.734375 C 65.734375 90.800781 65.714844 90.871094 65.714844 90.949219 C 65.714844 91.050781 65.734375 91.132812 65.769531 91.199219 C 65.804688 91.265625 65.859375 91.324219 65.925781 91.375 C 65.996094 91.429688 66.082031 91.476562 66.179688 91.515625 C 66.277344 91.558594 66.390625 91.605469 66.515625 91.652344 C 66.683594 91.71875 66.835938 91.785156 66.96875 91.851562 C 67.101562 91.921875 67.214844 91.996094 67.308594 92.082031 C 67.402344 92.167969 67.476562 92.265625 67.527344 92.375 C 67.574219 92.488281 67.601562 92.621094 67.601562 92.773438 C 67.601562 92.960938 67.558594 93.125 67.476562 93.261719 C 67.394531 93.398438 67.285156 93.515625 67.144531 93.605469 C 67.007812 93.699219 66.847656 93.765625 66.667969 93.808594 C 66.488281 93.855469 66.300781 93.875 66.101562 93.875 C 65.710938 93.875 65.375 93.800781 65.085938 93.652344 Z M 70.671875 93.230469 L 70.671875 93.75 C 70.53125 93.828125 70.339844 93.867188 70.105469 93.867188 C 69.441406 93.867188 69.109375 93.5 69.109375 92.757812 L 69.109375 90.511719 L 68.457031 90.511719 L 68.457031 89.996094 L 69.109375 89.996094 L 69.109375 89.070312 L 69.71875 88.871094 L 69.71875 89.996094 L 70.671875 89.996094 L 70.671875 90.511719 L 69.71875 90.511719 L 69.71875 92.652344 C 69.71875 92.90625 69.761719 93.085938 69.847656 93.195312 C 69.933594 93.304688 70.078125 93.359375 70.277344 93.359375 C 70.429688 93.359375 70.5625 93.316406 70.671875 93.230469 Z M 74.578125 91.320312 L 74.578125 93.789062 L 73.972656 93.789062 L 73.972656 93.195312 L 73.957031 93.195312 C 73.691406 93.648438 73.304688 93.875 72.789062 93.875 C 72.410156 93.875 72.117188 93.777344 71.902344 93.578125 C 71.6875 93.375 71.582031 93.109375 71.582031 92.78125 C 71.582031 92.070312 72 91.660156 72.835938 91.542969 L 73.972656 91.382812 C 73.972656 90.738281 73.710938 90.417969 73.191406 90.417969 C 72.734375 90.417969 72.320312 90.574219 71.953125 90.882812 L 71.953125 90.261719 C 72.324219 90.023438 72.753906 89.90625 73.242188 89.90625 C 74.132812 89.90625 74.578125 90.378906 74.578125 91.320312 Z M 73.972656 92.246094 L 73.972656 91.867188 L 73.054688 91.996094 C 72.773438 92.035156 72.5625 92.105469 72.417969 92.203125 C 72.277344 92.304688 72.203125 92.480469 72.203125 92.734375 C 72.203125 92.921875 72.269531 93.070312 72.402344 93.191406 C 72.535156 93.308594 72.710938 93.367188 72.929688 93.367188 C 73.230469 93.367188 73.480469 93.261719 73.675781 93.046875 C 73.871094 92.835938 73.972656 92.570312 73.972656 92.246094 Z M 79.339844 88.171875 L 79.339844 93.789062 L 78.730469 93.789062 L 78.730469 93.144531 L 78.71875 93.144531 C 78.4375 93.632812 78 93.875 77.414062 93.875 C 76.9375 93.875 76.554688 93.707031 76.269531 93.367188 C 75.984375 93.027344 75.84375 92.566406 75.84375 91.980469 C 75.84375 91.351562 76 90.851562 76.316406 90.472656 C 76.632812 90.09375 77.054688 89.90625 77.578125 89.90625 C 78.101562 89.90625 78.480469 90.109375 78.71875 90.519531 L 78.730469 90.519531 L 78.730469 88.171875 Z M 78.730469 92.074219 L 78.730469 91.511719 C 78.730469 91.207031 78.628906 90.949219 78.429688 90.734375 C 78.226562 90.523438 77.96875 90.417969 77.65625 90.417969 C 77.289062 90.417969 76.996094 90.554688 76.785156 90.824219 C 76.570312 91.097656 76.464844 91.472656 76.464844 91.949219 C 76.464844 92.386719 76.566406 92.734375 76.769531 92.984375 C 76.972656 93.238281 77.246094 93.367188 77.589844 93.367188 C 77.929688 93.367188 78.203125 93.242188 78.414062 93 C 78.625 92.753906 78.730469 92.445312 78.730469 92.074219 Z M 82.535156 93.875 C 81.972656 93.875 81.523438 93.699219 81.191406 93.34375 C 80.855469 92.992188 80.6875 92.519531 80.6875 91.933594 C 80.6875 91.296875 80.863281 90.800781 81.210938 90.441406 C 81.558594 90.085938 82.03125 89.90625 82.621094 89.90625 C 83.1875 89.90625 83.628906 90.082031 83.945312 90.429688 C 84.261719 90.777344 84.421875 91.257812 84.421875 91.875 C 84.421875 92.480469 84.25 92.964844 83.910156 93.328125 C 83.566406 93.695312 83.109375 93.875 82.535156 93.875 Z M 82.578125 90.417969 C 82.1875 90.417969 81.878906 90.550781 81.652344 90.816406 C 81.425781 91.082031 81.3125 91.445312 81.3125 91.914062 C 81.3125 92.363281 81.425781 92.71875 81.65625 92.976562 C 81.886719 93.234375 82.191406 93.367188 82.578125 93.367188 C 82.96875 93.367188 83.273438 93.238281 83.484375 92.984375 C 83.695312 92.730469 83.800781 92.367188 83.800781 91.898438 C 83.800781 91.425781 83.695312 91.058594 83.484375 90.800781 C 83.273438 90.546875 82.96875 90.417969 82.578125 90.417969 Z M 87.75 89.980469 L 87.75 90.609375 C 87.644531 90.527344 87.492188 90.488281 87.289062 90.488281 C 87.03125 90.488281 86.816406 90.609375 86.640625 90.855469 C 86.464844 91.097656 86.378906 91.433594 86.378906 91.855469 L 86.378906 93.789062 L 85.773438 93.789062 L 85.773438 89.996094 L 86.378906 89.996094 L 86.378906 90.777344 L 86.394531 90.777344 C 86.480469 90.511719 86.613281 90.300781 86.789062 90.152344 C 86.96875 90.003906 87.167969 89.929688 87.386719 89.929688 C 87.542969 89.929688 87.664062 89.945312 87.75 89.980469 Z M 91.503906 91.320312 L 91.503906 93.789062 L 90.894531 93.789062 L 90.894531 93.195312 L 90.878906 93.195312 C 90.617188 93.648438 90.226562 93.875 89.714844 93.875 C 89.335938 93.875 89.039062 93.777344 88.828125 93.578125 C 88.613281 93.375 88.507812 93.109375 88.507812 92.78125 C 88.507812 92.070312 88.925781 91.660156 89.757812 91.542969 L 90.894531 91.382812 C 90.894531 90.738281 90.636719 90.417969 90.113281 90.417969 C 89.65625 90.417969 89.246094 90.574219 88.878906 90.882812 L 88.878906 90.261719 C 89.25 90.023438 89.679688 89.90625 90.164062 89.90625 C 91.058594 89.90625 91.503906 90.378906 91.503906 91.320312 Z M 90.894531 92.246094 L 90.894531 91.867188 L 89.980469 91.996094 C 89.699219 92.035156 89.488281 92.105469 89.34375 92.203125 C 89.199219 92.304688 89.128906 92.480469 89.128906 92.734375 C 89.128906 92.921875 89.195312 93.070312 89.328125 93.191406 C 89.460938 93.308594 89.636719 93.367188 89.855469 93.367188 C 90.15625 93.367188 90.40625 93.261719 90.601562 93.046875 C 90.796875 92.835938 90.894531 92.570312 90.894531 92.246094 Z M 12.308594 91.722656 L 12.308594 92.042969 L 9.632812 92.042969 C 9.640625 92.464844 9.757812 92.792969 9.972656 93.019531 C 10.191406 93.25 10.488281 93.367188 10.871094 93.367188 C 11.296875 93.367188 11.691406 93.226562 12.046875 92.941406 L 12.046875 93.511719 C 11.714844 93.753906 11.273438 93.875 10.726562 93.875 C 10.1875 93.875 9.769531 93.703125 9.460938 93.359375 C 9.15625 93.015625 9.003906 92.53125 9.003906 91.90625 C 9.003906 91.316406 9.171875 90.835938 9.503906 90.464844 C 9.839844 90.09375 10.253906 89.90625 10.75 89.90625 C 11.246094 89.90625 11.632812 90.066406 11.902344 90.386719 C 12.175781 90.707031 12.308594 91.152344 12.308594 91.722656 Z M 9.640625 91.527344 L 11.6875 91.527344 C 11.6875 91.179688 11.601562 90.90625 11.433594 90.710938 C 11.269531 90.515625 11.035156 90.417969 10.738281 90.417969 C 10.453125 90.417969 10.210938 90.519531 10.011719 90.722656 C 9.808594 90.929688 9.6875 91.199219 9.640625 91.527344 Z M 18.992188 91.449219 L 18.992188 93.789062 L 18.386719 93.789062 L 18.386719 91.609375 C 18.386719 91.191406 18.320312 90.886719 18.191406 90.699219 C 18.0625 90.511719 17.84375 90.417969 17.539062 90.417969 C 17.277344 90.417969 17.058594 90.535156 16.875 90.773438 C 16.695312 91.011719 16.605469 91.292969 16.605469 91.625 L 16.605469 93.789062 L 15.996094 93.789062 L 15.996094 91.535156 C 15.996094 90.789062 15.710938 90.417969 15.132812 90.417969 C 14.867188 90.417969 14.648438 90.527344 14.476562 90.753906 C 14.300781 90.976562 14.214844 91.265625 14.214844 91.625 L 14.214844 93.789062 L 13.609375 93.789062 L 13.609375 89.996094 L 14.214844 89.996094 L 14.214844 90.59375 L 14.230469 90.59375 C 14.5 90.136719 14.890625 89.90625 15.40625 89.90625 C 15.667969 89.90625 15.894531 89.976562 16.085938 90.121094 C 16.277344 90.265625 16.410156 90.457031 16.480469 90.691406 C 16.761719 90.167969 17.183594 89.90625 17.742188 89.90625 C 18.574219 89.90625 18.992188 90.421875 18.992188 91.449219 Z M 21.144531 93.238281 L 21.128906 93.238281 L 21.128906 95.53125 L 20.519531 95.53125 L 20.519531 89.996094 L 21.128906 89.996094 L 21.128906 90.660156 L 21.144531 90.660156 C 21.441406 90.15625 21.878906 89.90625 22.453125 89.90625 C 22.941406 89.90625 23.324219 90.074219 23.597656 90.414062 C 23.871094 90.753906 24.007812 91.210938 24.007812 91.78125 C 24.007812 92.414062 23.855469 92.921875 23.546875 93.304688 C 23.238281 93.6875 22.816406 93.875 22.28125 93.875 C 21.789062 93.875 21.410156 93.664062 21.144531 93.238281 Z M 21.128906 91.710938 L 21.128906 92.238281 C 21.128906 92.554688 21.230469 92.820312 21.433594 93.039062 C 21.636719 93.257812 21.894531 93.367188 22.210938 93.367188 C 22.578125 93.367188 22.867188 93.226562 23.074219 92.941406 C 23.28125 92.660156 23.386719 92.269531 23.386719 91.769531 C 23.386719 91.347656 23.289062 91.015625 23.09375 90.777344 C 22.898438 90.535156 22.636719 90.417969 22.300781 90.417969 C 21.949219 90.417969 21.664062 90.539062 21.449219 90.785156 C 21.234375 91.03125 21.128906 91.339844 21.128906 91.710938 Z M 27.335938 89.980469 L 27.335938 90.609375 C 27.230469 90.527344 27.078125 90.488281 26.878906 90.488281 C 26.617188 90.488281 26.402344 90.609375 26.226562 90.855469 C 26.054688 91.097656 25.964844 91.433594 25.964844 91.855469 L 25.964844 93.789062 L 25.359375 93.789062 L 25.359375 89.996094 L 25.964844 89.996094 L 25.964844 90.777344 L 25.980469 90.777344 C 26.066406 90.511719 26.199219 90.300781 26.378906 90.152344 C 26.554688 90.003906 26.753906 89.929688 26.972656 89.929688 C 27.132812 89.929688 27.253906 89.945312 27.335938 89.980469 Z M 31.421875 91.722656 L 31.421875 92.042969 L 28.746094 92.042969 C 28.753906 92.464844 28.871094 92.792969 29.085938 93.019531 C 29.304688 93.25 29.601562 93.367188 29.984375 93.367188 C 30.410156 93.367188 30.800781 93.226562 31.160156 92.941406 L 31.160156 93.511719 C 30.828125 93.753906 30.386719 93.875 29.839844 93.875 C 29.304688 93.875 28.882812 93.703125 28.574219 93.359375 C 28.269531 93.015625 28.117188 92.53125 28.117188 91.90625 C 28.117188 91.316406 28.285156 90.835938 28.617188 90.464844 C 28.953125 90.09375 29.367188 89.90625 29.863281 89.90625 C 30.359375 89.90625 30.746094 90.066406 31.015625 90.386719 C 31.289062 90.707031 31.421875 91.152344 31.421875 91.722656 Z M 28.753906 91.527344 L 30.800781 91.527344 C 30.800781 91.179688 30.714844 90.90625 30.546875 90.710938 C 30.378906 90.515625 30.148438 90.417969 29.851562 90.417969 C 29.566406 90.417969 29.324219 90.519531 29.125 90.722656 C 28.921875 90.929688 28.800781 91.199219 28.753906 91.527344 Z M 32.492188 93.652344 L 32.492188 93 C 32.824219 93.242188 33.1875 93.367188 33.585938 93.367188 C 34.117188 93.367188 34.382812 93.1875 34.382812 92.832031 C 34.382812 92.730469 34.363281 92.644531 34.316406 92.574219 C 34.269531 92.503906 34.207031 92.441406 34.128906 92.386719 C 34.054688 92.332031 33.960938 92.285156 33.855469 92.242188 C 33.75 92.199219 33.636719 92.152344 33.515625 92.105469 C 33.351562 92.039062 33.203125 91.972656 33.074219 91.902344 C 32.949219 91.835938 32.84375 91.761719 32.757812 91.675781 C 32.671875 91.589844 32.605469 91.492188 32.5625 91.382812 C 32.519531 91.273438 32.5 91.148438 32.5 91.003906 C 32.5 90.824219 32.539062 90.667969 32.621094 90.53125 C 32.703125 90.394531 32.8125 90.277344 32.949219 90.183594 C 33.082031 90.09375 33.238281 90.023438 33.410156 89.976562 C 33.585938 89.929688 33.765625 89.90625 33.949219 89.90625 C 34.28125 89.90625 34.574219 89.960938 34.832031 90.078125 L 34.832031 90.691406 C 34.554688 90.507812 34.234375 90.417969 33.871094 90.417969 C 33.753906 90.417969 33.652344 90.429688 33.5625 90.457031 C 33.46875 90.480469 33.390625 90.519531 33.328125 90.566406 C 33.261719 90.613281 33.210938 90.667969 33.175781 90.734375 C 33.140625 90.800781 33.121094 90.871094 33.121094 90.949219 C 33.121094 91.050781 33.140625 91.132812 33.175781 91.199219 C 33.210938 91.265625 33.261719 91.324219 33.332031 91.375 C 33.402344 91.429688 33.484375 91.476562 33.585938 91.515625 C 33.683594 91.558594 33.796875 91.605469 33.921875 91.652344 C 34.089844 91.71875 34.238281 91.785156 34.375 91.851562 C 34.507812 91.921875 34.621094 91.996094 34.714844 92.082031 C 34.808594 92.167969 34.878906 92.265625 34.929688 92.375 C 34.980469 92.488281 35.007812 92.621094 35.007812 92.773438 C 35.007812 92.960938 34.964844 93.125 34.882812 93.261719 C 34.800781 93.398438 34.6875 93.515625 34.550781 93.605469 C 34.414062 93.699219 34.253906 93.765625 34.074219 93.808594 C 33.894531 93.855469 33.703125 93.875 33.507812 93.875 C 33.117188 93.875 32.777344 93.800781 32.492188 93.652344 Z M 39.035156 91.320312 L 39.035156 93.789062 L 38.425781 93.789062 L 38.425781 93.195312 L 38.410156 93.195312 C 38.148438 93.648438 37.757812 93.875 37.246094 93.875 C 36.867188 93.875 36.570312 93.777344 36.359375 93.578125 C 36.144531 93.375 36.039062 93.109375 36.039062 92.78125 C 36.039062 92.070312 36.453125 91.660156 37.289062 91.542969 L 38.425781 91.382812 C 38.425781 90.738281 38.164062 90.417969 37.644531 90.417969 C 37.1875 90.417969 36.777344 90.574219 36.40625 90.882812 L 36.40625 90.261719 C 36.78125 90.023438 37.210938 89.90625 37.695312 89.90625 C 38.589844 89.90625 39.035156 90.378906 39.035156 91.320312 Z M 38.425781 92.246094 L 38.425781 91.867188 L 37.511719 91.996094 C 37.230469 92.035156 37.019531 92.105469 36.875 92.203125 C 36.730469 92.304688 36.660156 92.480469 36.660156 92.734375 C 36.660156 92.921875 36.726562 93.070312 36.859375 93.191406 C 36.992188 93.308594 37.167969 93.367188 37.386719 93.367188 C 37.6875 93.367188 37.9375 93.261719 38.132812 93.046875 C 38.328125 92.835938 38.425781 92.570312 38.425781 92.246094 Z M 38.425781 92.246094 "/>
<path style=" stroke:none;fill-rule:nonzero;fill:rgb(74.117647%,85.098039%,24.313725%);fill-opacity:1;" d="M 56.699219 7.347656 C 56.5 8.246094 56.351562 9.246094 56.351562 9.546875 C 56.351562 9.898438 55.898438 10.246094 55.300781 10.246094 C 54.449219 10.296875 54.449219 10.347656 55.148438 10.546875 C 55.601562 10.648438 56 11.097656 56 11.546875 C 56 12.097656 55.601562 12.246094 54.601562 12.097656 C 53.550781 11.945312 52.949219 12.195312 52.300781 13.046875 C 51.851562 13.695312 51.699219 14.195312 52 14.195312 C 52.25 14.195312 52.5 14.445312 52.5 14.796875 C 52.5 15.097656 52.851562 15.796875 53.351562 16.296875 C 54.050781 17.097656 54.050781 17.195312 53.351562 17.195312 C 52.949219 17.195312 51.800781 18.296875 50.800781 19.695312 C 49.800781 21.046875 48.800781 22.195312 48.5 22.195312 C 48.25 22.195312 48 22.648438 48 23.148438 C 48 24.148438 47.101562 24.695312 45.449219 24.695312 C 44.648438 24.695312 44.5 24.945312 44.75 25.695312 C 45 26.445312 44.851562 26.695312 44.101562 26.695312 C 43.601562 26.695312 42.648438 27.246094 42 27.945312 C 41.351562 28.648438 41.050781 29.195312 41.351562 29.195312 C 41.648438 29.195312 42.148438 29.847656 42.398438 30.648438 C 42.800781 31.746094 43.300781 32.148438 44.300781 32.296875 C 45.25 32.398438 45.949219 32.945312 46.550781 34.046875 C 47.351562 35.496094 47.398438 35.746094 46.699219 36.445312 C 46.25 36.847656 45.300781 37.195312 44.5 37.195312 C 43.699219 37.195312 42.898438 37.398438 42.75 37.695312 C 42.601562 37.945312 42 38.195312 41.398438 38.195312 C 40.75 38.195312 40.5 38.445312 40.648438 38.898438 C 41.050781 39.945312 39.699219 40.847656 38.25 40.496094 C 36.699219 40.097656 34.699219 41.296875 34.300781 42.847656 C 34.148438 43.445312 33.300781 44.246094 32.398438 44.648438 C 30.050781 45.695312 31.550781 45.898438 34.449219 44.945312 C 36.699219 44.195312 37.050781 44.195312 38.449219 44.945312 C 39.351562 45.398438 40.5 45.597656 41.199219 45.398438 C 41.949219 45.246094 42.851562 45.398438 43.449219 45.796875 C 44.5 46.546875 44.5 46.546875 43.351562 47.097656 C 42.75 47.398438 41.5 47.746094 40.601562 47.898438 C 37.949219 48.347656 35.5 49.695312 35.851562 50.496094 C 36 50.898438 35.800781 51.195312 35.300781 51.195312 C 34.851562 51.195312 34.5 51.546875 34.5 51.945312 C 34.5 52.796875 33 53.695312 31.601562 53.695312 C 31.050781 53.695312 30 53.996094 29.300781 54.398438 L 28 55.046875 L 30.25 55.347656 C 34.101562 55.898438 36.101562 57.898438 34.398438 59.597656 C 33.949219 60.046875 34.75 60.195312 38 60.195312 C 41.699219 60.195312 42.398438 60.347656 44.050781 61.496094 C 46.5 63.195312 50.550781 63.597656 53.949219 62.496094 C 57.398438 61.398438 58.898438 61.496094 61.101562 62.996094 C 63.199219 64.445312 66.25 64.996094 69.699219 64.496094 C 71.550781 64.195312 72.601562 63.597656 74.898438 61.496094 C 78.648438 58.046875 79.351562 57.695312 83.050781 57.695312 C 86.101562 57.695312 86.148438 57.648438 85.199219 56.796875 C 84.699219 56.347656 83.601562 55.695312 82.800781 55.445312 C 80.949219 54.796875 80.601562 53.898438 82.050781 53.445312 C 82.898438 53.148438 83 52.996094 82.449219 52.648438 C 82 52.347656 82.449219 52.195312 83.851562 52.195312 C 85 52.195312 86.101562 51.945312 86.25 51.695312 C 86.398438 51.398438 87.101562 51.195312 87.800781 51.195312 C 88.5 51.195312 88.898438 50.996094 88.75 50.695312 C 88.601562 50.398438 88.898438 50.195312 89.449219 50.195312 C 89.949219 50.195312 90.800781 50.046875 91.25 49.898438 C 91.949219 49.597656 91.949219 49.496094 91.148438 48.597656 C 90.300781 47.648438 90.300781 47.597656 91.5 46.648438 L 92.75 45.695312 L 89.601562 45.695312 C 87 45.695312 86.351562 45.546875 86.199219 44.796875 C 85.851562 43.546875 81.851562 41.996094 79.898438 42.398438 L 78.351562 42.695312 L 79.898438 41.195312 C 80.800781 40.347656 81.5 39.597656 81.5 39.445312 C 81.5 39.296875 80.800781 39.195312 80 39.195312 C 78.5 39.195312 77.050781 38.597656 75.449219 37.296875 C 74.851562 36.847656 74.300781 36.796875 73 37.246094 C 71.601562 37.746094 71.300781 37.695312 70.898438 36.996094 C 70.648438 36.546875 69.949219 36.195312 69.300781 36.195312 C 68.300781 36.195312 68.148438 35.945312 68.199219 34.597656 C 68.25 33.746094 68.550781 32.945312 68.898438 32.796875 C 69.199219 32.695312 69.5 32.296875 69.5 31.898438 C 69.5 31.445312 70.648438 30.648438 72.101562 29.996094 L 74.648438 28.847656 L 72.300781 28.246094 C 71 27.945312 69.851562 27.347656 69.699219 26.945312 C 69.5 26.496094 68.75 26.195312 67.699219 26.195312 C 66.550781 26.195312 66 25.945312 66 25.496094 C 66 24.996094 65.351562 24.695312 64.148438 24.597656 L 62.25 24.398438 L 64.699219 23.246094 L 67.199219 22.046875 L 65.851562 21.347656 C 64.5 20.695312 64.101562 19.496094 64.949219 18.996094 C 65.800781 18.445312 65.199219 15.546875 64.148438 15.148438 C 63.050781 14.746094 62.351562 13.496094 62.300781 11.996094 C 62.25 11.347656 61.75 10.898438 60.648438 10.597656 C 59.050781 10.195312 58.300781 8.695312 59.648438 8.695312 C 59.949219 8.695312 59.800781 8.347656 59.25 7.898438 C 58.699219 7.496094 58.300781 6.945312 58.351562 6.695312 C 58.398438 6.496094 58.148438 6.195312 57.800781 6.046875 C 57.351562 5.847656 57 6.296875 56.699219 7.347656 Z M 56.699219 7.347656 "/>
<path style=" stroke:none;fill-rule:nonzero;fill:rgb(41.176471%,71.764706%,17.647059%);fill-opacity:1;" d="M 47.949219 10.347656 C 47.75 11.246094 47.601562 12.246094 47.601562 12.546875 C 47.601562 12.898438 47.148438 13.246094 46.550781 13.246094 C 45.699219 13.296875 45.699219 13.347656 46.398438 13.546875 C 46.851562 13.648438 47.25 14.097656 47.25 14.546875 C 47.25 15.097656 46.851562 15.246094 45.851562 15.097656 C 44.800781 14.945312 44.199219 15.195312 43.550781 16.046875 C 43.101562 16.695312 42.949219 17.195312 43.25 17.195312 C 43.5 17.195312 43.75 17.445312 43.75 17.796875 C 43.75 18.097656 44.101562 18.796875 44.601562 19.296875 C 45.300781 20.097656 45.300781 20.195312 44.601562 20.195312 C 44.199219 20.195312 43.050781 21.296875 42.050781 22.695312 C 41.050781 24.046875 40.050781 25.195312 39.75 25.195312 C 39.5 25.195312 39.25 25.648438 39.25 26.148438 C 39.25 27.148438 38.351562 27.695312 36.699219 27.695312 C 35.898438 27.695312 35.75 27.945312 36 28.695312 C 36.25 29.445312 36.101562 29.695312 35.351562 29.695312 C 34.851562 29.695312 33.898438 30.246094 33.25 30.945312 C 32.601562 31.648438 32.300781 32.195312 32.601562 32.195312 C 32.898438 32.195312 33.398438 32.847656 33.648438 33.648438 C 34.050781 34.746094 34.550781 35.148438 35.550781 35.296875 C 36.5 35.398438 37.199219 35.945312 37.800781 37.046875 C 38.601562 38.496094 38.648438 38.746094 37.949219 39.445312 C 37.5 39.847656 36.550781 40.195312 35.75 40.195312 C 34.949219 40.195312 34.148438 40.398438 34 40.695312 C 33.851562 40.945312 33.25 41.195312 32.648438 41.195312 C 32 41.195312 31.75 41.445312 31.898438 41.898438 C 32.300781 42.945312 30.949219 43.847656 29.5 43.496094 C 27.949219 43.097656 25.949219 44.296875 25.550781 45.847656 C 25.398438 46.445312 24.550781 47.246094 23.648438 47.648438 C 21.300781 48.695312 22.800781 48.898438 25.699219 47.945312 C 27.949219 47.195312 28.300781 47.195312 29.699219 47.945312 C 30.601562 48.398438 31.75 48.597656 32.449219 48.398438 C 33.199219 48.246094 34.101562 48.398438 34.699219 48.796875 C 35.75 49.546875 35.75 49.546875 34.601562 50.097656 C 34 50.398438 32.75 50.746094 31.851562 50.898438 C 29.199219 51.347656 26.75 52.695312 27.101562 53.496094 C 27.25 53.898438 27.050781 54.195312 26.550781 54.195312 C 26.101562 54.195312 25.75 54.546875 25.75 54.945312 C 25.75 55.796875 24.25 56.695312 22.851562 56.695312 C 22.300781 56.695312 21.25 56.996094 20.550781 57.398438 L 19.25 58.046875 L 21.5 58.347656 C 25.351562 58.898438 27.351562 60.898438 25.648438 62.597656 C 25.199219 63.046875 26 63.195312 29.25 63.195312 C 32.949219 63.195312 33.648438 63.347656 35.300781 64.496094 C 37.75 66.195312 41.800781 66.597656 45.199219 65.496094 C 48.648438 64.398438 50.148438 64.496094 52.351562 65.996094 C 54.449219 67.445312 57.5 67.996094 60.949219 67.496094 C 62.800781 67.195312 63.851562 66.597656 66.148438 64.496094 C 69.898438 61.046875 70.601562 60.695312 74.300781 60.695312 C 77.351562 60.695312 77.398438 60.648438 76.449219 59.796875 C 75.949219 59.347656 74.851562 58.695312 74.050781 58.445312 C 72.199219 57.796875 71.851562 56.898438 73.300781 56.445312 C 74.148438 56.148438 74.25 55.996094 73.699219 55.648438 C 73.25 55.347656 73.699219 55.195312 75.101562 55.195312 C 76.25 55.195312 77.351562 54.945312 77.5 54.695312 C 77.648438 54.398438 78.351562 54.195312 79.050781 54.195312 C 79.75 54.195312 80.148438 53.996094 80 53.695312 C 79.851562 53.398438 80.148438 53.195312 80.699219 53.195312 C 81.199219 53.195312 82.050781 53.046875 82.5 52.898438 C 83.199219 52.597656 83.199219 52.496094 82.398438 51.597656 C 81.550781 50.648438 81.550781 50.597656 82.75 49.648438 L 84 48.695312 L 80.851562 48.695312 C 78.25 48.695312 77.601562 48.546875 77.449219 47.796875 C 77.101562 46.546875 73.101562 44.996094 71.148438 45.398438 L 69.601562 45.695312 L 71.148438 44.195312 C 72.050781 43.347656 72.75 42.597656 72.75 42.445312 C 72.75 42.296875 72.050781 42.195312 71.25 42.195312 C 69.75 42.195312 68.300781 41.597656 66.699219 40.296875 C 66.101562 39.847656 65.550781 39.796875 64.25 40.246094 C 62.851562 40.746094 62.550781 40.695312 62.148438 39.996094 C 61.898438 39.546875 61.199219 39.195312 60.550781 39.195312 C 59.550781 39.195312 59.398438 38.945312 59.449219 37.597656 C 59.5 36.746094 59.800781 35.945312 60.148438 35.796875 C 60.449219 35.695312 60.75 35.296875 60.75 34.898438 C 60.75 34.445312 61.898438 33.648438 63.351562 32.996094 L 65.898438 31.847656 L 63.550781 31.246094 C 62.25 30.945312 61.101562 30.347656 60.949219 29.945312 C 60.75 29.496094 60 29.195312 58.949219 29.195312 C 57.800781 29.195312 57.25 28.945312 57.25 28.496094 C 57.25 27.996094 56.601562 27.695312 55.398438 27.597656 L 53.5 27.398438 L 55.949219 26.246094 L 58.449219 25.046875 L 57.101562 24.347656 C 55.75 23.695312 55.351562 22.496094 56.199219 21.996094 C 57.050781 21.445312 56.449219 18.546875 55.398438 18.148438 C 54.300781 17.746094 53.601562 16.496094 53.550781 14.996094 C 53.5 14.347656 53 13.898438 51.898438 13.597656 C 50.300781 13.195312 49.550781 11.695312 50.898438 11.695312 C 51.199219 11.695312 51.050781 11.347656 50.5 10.898438 C 49.949219 10.496094 49.550781 9.945312 49.601562 9.695312 C 49.648438 9.496094 49.398438 9.195312 49.050781 9.046875 C 48.601562 8.847656 48.25 9.296875 47.949219 10.347656 Z M 47.949219 10.347656 "/>
<path style=" stroke:none;fill-rule:nonzero;fill:rgb(11.764706%,61.176471%,22.352941%);fill-opacity:1;" d="M 39.101562 13.527344 C 38.902344 14.425781 38.753906 15.425781 38.753906 15.726562 C 38.753906 16.078125 38.300781 16.425781 37.703125 16.425781 C 36.851562 16.476562 36.851562 16.527344 37.550781 16.726562 C 38.003906 16.828125 38.402344 17.277344 38.402344 17.726562 C 38.402344 18.277344 38.003906 18.425781 37.003906 18.277344 C 35.953125 18.128906 35.351562 18.378906 34.703125 19.226562 C 34.253906 19.878906 34.101562 20.378906 34.402344 20.378906 C 34.652344 20.378906 34.902344 20.628906 34.902344 20.976562 C 34.902344 21.277344 35.253906 21.976562 35.753906 22.476562 C 36.453125 23.277344 36.453125 23.378906 35.753906 23.378906 C 35.351562 23.378906 34.203125 24.476562 33.203125 25.878906 C 32.203125 27.226562 31.203125 28.378906 30.902344 28.378906 C 30.652344 28.378906 30.402344 28.828125 30.402344 29.328125 C 30.402344 30.328125 29.503906 30.878906 27.851562 30.878906 C 27.050781 30.878906 26.902344 31.128906 27.152344 31.878906 C 27.402344 32.628906 27.253906 32.878906 26.503906 32.878906 C 26.003906 32.878906 25.050781 33.425781 24.402344 34.128906 C 23.753906 34.828125 23.453125 35.378906 23.753906 35.378906 C 24.050781 35.378906 24.550781 36.027344 24.800781 36.828125 C 25.203125 37.925781 25.703125 38.328125 26.703125 38.476562 C 27.652344 38.578125 28.351562 39.128906 28.953125 40.226562 C 29.753906 41.675781 29.800781 41.925781 29.101562 42.628906 C 28.652344 43.027344 27.703125 43.378906 26.902344 43.378906 C 26.101562 43.378906 25.300781 43.578125 25.152344 43.878906 C 25.003906 44.128906 24.402344 44.378906 23.800781 44.378906 C 23.152344 44.378906 22.902344 44.628906 23.050781 45.078125 C 23.453125 46.128906 22.101562 47.027344 20.652344 46.675781 C 19.101562 46.277344 17.101562 47.476562 16.703125 49.027344 C 16.550781 49.628906 15.703125 50.425781 14.800781 50.828125 C 12.453125 51.878906 13.953125 52.078125 16.851562 51.128906 C 19.101562 50.378906 19.453125 50.378906 20.851562 51.128906 C 21.753906 51.578125 22.902344 51.777344 23.601562 51.578125 C 24.351562 51.425781 25.253906 51.578125 25.851562 51.976562 C 26.902344 52.726562 26.902344 52.726562 25.753906 53.277344 C 25.152344 53.578125 23.902344 53.925781 23.003906 54.078125 C 20.351562 54.527344 17.902344 55.878906 18.253906 56.675781 C 18.402344 57.078125 18.203125 57.378906 17.703125 57.378906 C 17.253906 57.378906 16.902344 57.726562 16.902344 58.128906 C 16.902344 58.976562 15.402344 59.878906 14.003906 59.878906 C 13.453125 59.878906 12.402344 60.175781 11.703125 60.578125 L 10.402344 61.226562 L 12.652344 61.527344 C 16.503906 62.078125 18.503906 64.078125 16.800781 65.777344 C 16.351562 66.226562 17.152344 66.378906 20.402344 66.378906 C 24.101562 66.378906 24.800781 66.527344 26.453125 67.675781 C 28.902344 69.378906 32.953125 69.777344 36.351562 68.675781 C 39.800781 67.578125 41.300781 67.675781 43.503906 69.175781 C 45.601562 70.628906 48.652344 71.175781 52.101562 70.675781 C 53.953125 70.378906 55.003906 69.777344 57.300781 67.675781 C 61.050781 64.226562 61.753906 63.878906 65.453125 63.878906 C 68.503906 63.878906 68.550781 63.828125 67.601562 62.976562 C 67.101562 62.527344 66.003906 61.878906 65.203125 61.628906 C 63.351562 60.976562 63.003906 60.078125 64.453125 59.628906 C 65.300781 59.328125 65.402344 59.175781 64.851562 58.828125 C 64.402344 58.527344 64.851562 58.378906 66.253906 58.378906 C 67.402344 58.378906 68.503906 58.128906 68.652344 57.878906 C 68.800781 57.578125 69.503906 57.378906 70.203125 57.378906 C 70.902344 57.378906 71.300781 57.175781 71.152344 56.878906 C 71.003906 56.578125 71.300781 56.378906 71.851562 56.378906 C 72.351562 56.378906 73.203125 56.226562 73.652344 56.078125 C 74.351562 55.777344 74.351562 55.675781 73.550781 54.777344 C 72.703125 53.828125 72.703125 53.777344 73.902344 52.828125 L 75.152344 51.878906 L 72.003906 51.878906 C 69.402344 51.878906 68.753906 51.726562 68.601562 50.976562 C 68.253906 49.726562 64.253906 48.175781 62.300781 48.578125 L 60.753906 48.878906 L 62.300781 47.378906 C 63.203125 46.527344 63.902344 45.777344 63.902344 45.628906 C 63.902344 45.476562 63.203125 45.378906 62.402344 45.378906 C 60.902344 45.378906 59.453125 44.777344 57.851562 43.476562 C 57.253906 43.027344 56.703125 42.976562 55.402344 43.425781 C 54.003906 43.925781 53.703125 43.878906 53.300781 43.175781 C 53.050781 42.726562 52.351562 42.378906 51.703125 42.378906 C 50.703125 42.378906 50.550781 42.128906 50.601562 40.777344 C 50.652344 39.925781 50.953125 39.128906 51.300781 38.976562 C 51.601562 38.878906 51.902344 38.476562 51.902344 38.078125 C 51.902344 37.628906 53.050781 36.828125 54.503906 36.175781 L 57.050781 35.027344 L 54.703125 34.425781 C 53.402344 34.128906 52.253906 33.527344 52.101562 33.128906 C 51.902344 32.675781 51.152344 32.378906 50.101562 32.378906 C 48.953125 32.378906 48.402344 32.128906 48.402344 31.675781 C 48.402344 31.175781 47.753906 30.878906 46.550781 30.777344 L 44.652344 30.578125 L 47.101562 29.425781 L 49.601562 28.226562 L 48.253906 27.527344 C 46.902344 26.878906 46.503906 25.675781 47.351562 25.175781 C 48.203125 24.628906 47.601562 21.726562 46.550781 21.328125 C 45.453125 20.925781 44.753906 19.675781 44.703125 18.175781 C 44.652344 17.527344 44.152344 17.078125 43.050781 16.777344 C 41.453125 16.378906 40.703125 14.878906 42.050781 14.878906 C 42.351562 14.878906 42.203125 14.527344 41.652344 14.078125 C 41.101562 13.675781 40.703125 13.128906 40.753906 12.878906 C 40.800781 12.675781 40.550781 12.378906 40.203125 12.226562 C 39.753906 12.027344 39.402344 12.476562 39.101562 13.527344 Z M 39.101562 13.527344 "/>
<path style=" stroke:none;fill-rule:nonzero;fill:rgb(44.705882%,30.980392%,29.803922%);fill-opacity:1;" d="M 38.253906 69.726562 C 38.050781 69.878906 37.902344 70.878906 37.902344 71.878906 L 37.902344 73.726562 L 39.902344 73.226562 C 41.800781 72.675781 43.851562 72.976562 46.550781 74.128906 C 47.203125 74.378906 47.402344 74.277344 47.351562 73.578125 C 47.300781 71.878906 39.402344 68.527344 38.253906 69.726562 Z M 38.253906 69.726562 "/>
</g>
</svg>
