<svg xmlns="http://www.w3.org/2000/svg" version="1.1" xmlns:xlink="http://www.w3.org/1999/xlink" xmlns:svgjs="http://svgjs.com/svgjs" width="1440" height="1200" preserveAspectRatio="none" viewBox="0 0 1440 1200"><g mask="url(&quot;#SvgjsMask1060&quot;)" fill="none"><rect width="1440" height="1200" x="0" y="0" fill="rgba(30, 156, 57, 1)"></rect><path d="M0,492.778C93.237,500.715,181.95,456.194,261.062,406.22C340.635,355.954,421.962,295.708,452.765,206.771C482.744,120.216,435.84,29.878,422.812,-60.791C409.782,-151.469,428.385,-250.689,376.212,-325.989C322.209,-403.93,227.955,-440.176,138.385,-471.297C45.144,-503.694,-51.198,-519.19,-149.336,-508.591C-262.692,-496.349,-408.004,-502.548,-468.291,-405.776C-530.649,-305.68,-442.923,-178.481,-427.856,-61.516C-417.273,20.64,-427.243,104.051,-392.904,179.433C-358.543,254.861,-298.782,312.4,-233.98,364.08C-162.95,420.728,-90.526,485.072,0,492.778" fill="#146525"></path><path d="M1440 1673.007C1565.474 1680.7440000000001 1680.355 1799.743 1799.3220000000001 1759.117 1918.774 1718.325 1977.738 1584.31 2032.6100000000001 1470.636 2088.4 1355.059 2159.782 1223.476 2116.14 1102.786 2072.513 982.138 1906.778 964.942 1816.711 873.578 1735.18 790.8720000000001 1720.6309999999999 649.377 1617.167 596.625 1509.181 541.567 1370.021 537.338 1260.952 590.219 1155.4180000000001 641.386 1115.887 766.7180000000001 1057.065 868.185 1008.804 951.435 978.6700000000001 1037.972 948.4259999999999 1129.3220000000001 911.276 1241.53 828.413 1351.083 859.424 1465.1399999999999 890.983 1581.215 994.822 1675.945 1108.071 1716.492 1215.3 1754.884 1326.321 1665.997 1440 1673.007" fill="#29d34d"></path></g><defs><mask id="SvgjsMask1060"><rect width="1440" height="1200" fill="#ffffff"></rect></mask></defs></svg>